<mxfile host="drawio-plugin" modified="2022-05-16T01:40:33.151Z" agent="5.0 (X11; Linux x86_64) AppleWebKit/537.36 (KHTML, like Gecko) Chrome/89.0.4389.114 Safari/537.36" etag="14vOtQ7DLD-ub7yBCS1c" version="15.5.4" type="embed"><diagram id="EM4weqfllc2qSu1UA_lo" name="Page-1"><mxGraphModel dx="979" dy="990" grid="1" gridSize="10" guides="1" tooltips="1" connect="1" arrows="1" fold="1" page="1" pageScale="1" pageWidth="850" pageHeight="1100" math="0" shadow="0"><root><mxCell id="0"/><mxCell id="1" parent="0"/><mxCell id="34" value="Register Flow" style="text;html=1;strokeColor=none;fillColor=none;align=center;verticalAlign=middle;whiteSpace=wrap;rounded=0;" parent="1" vertex="1"><mxGeometry x="40" y="1150" width="60" height="30" as="geometry"/></mxCell><mxCell id="35" value="" style="group" parent="1" vertex="1" connectable="0"><mxGeometry x="120" y="1230" width="30" height="280" as="geometry"/></mxCell><mxCell id="31" value="" style="endArrow=none;html=1;rounded=0;" parent="35" edge="1"><mxGeometry width="50" height="50" relative="1" as="geometry"><mxPoint x="14.710000000000008" y="61.463414634146346" as="sourcePoint"/><mxPoint x="14.710000000000008" y="280" as="targetPoint"/></mxGeometry></mxCell><mxCell id="115" value="User" style="edgeLabel;html=1;align=center;verticalAlign=middle;resizable=0;points=[];" parent="31" vertex="1" connectable="0"><mxGeometry x="-0.9624" relative="1" as="geometry"><mxPoint as="offset"/></mxGeometry></mxCell><mxCell id="36" value="" style="group" parent="1" vertex="1" connectable="0"><mxGeometry x="330" y="1230" width="75" height="280" as="geometry"/></mxCell><mxCell id="37" value="" style="endArrow=none;html=1;rounded=0;" parent="36" edge="1"><mxGeometry width="50" height="50" relative="1" as="geometry"><mxPoint x="14.710000000000008" y="61.463414634146346" as="sourcePoint"/><mxPoint x="14.710000000000008" y="280" as="targetPoint"/></mxGeometry></mxCell><mxCell id="116" value="System" style="edgeLabel;html=1;align=center;verticalAlign=middle;resizable=0;points=[];" parent="37" vertex="1" connectable="0"><mxGeometry x="-0.9624" y="1" relative="1" as="geometry"><mxPoint as="offset"/></mxGeometry></mxCell><mxCell id="40" value="2. CreateUser" style="rounded=1;whiteSpace=wrap;html=1;" parent="36" vertex="1"><mxGeometry x="-45" y="130" width="120" height="30" as="geometry"/></mxCell><mxCell id="45" value="4. Set is_verified" style="rounded=1;whiteSpace=wrap;html=1;" parent="36" vertex="1"><mxGeometry x="-45" y="230" width="120" height="30" as="geometry"/></mxCell><mxCell id="39" value="1. Register" style="rounded=1;whiteSpace=wrap;html=1;" parent="1" vertex="1"><mxGeometry x="75" y="1330" width="120" height="30" as="geometry"/></mxCell><mxCell id="41" value="" style="group" parent="1" vertex="1" connectable="0"><mxGeometry x="550" y="1230" width="30" height="280" as="geometry"/></mxCell><mxCell id="42" value="" style="endArrow=none;html=1;rounded=0;" parent="41" edge="1"><mxGeometry width="50" height="50" relative="1" as="geometry"><mxPoint x="14.710000000000008" y="61.463414634146346" as="sourcePoint"/><mxPoint x="14.710000000000008" y="280" as="targetPoint"/></mxGeometry></mxCell><mxCell id="117" value="Admin" style="edgeLabel;html=1;align=center;verticalAlign=middle;resizable=0;points=[];" parent="42" vertex="1" connectable="0"><mxGeometry x="-0.9624" y="-2" relative="1" as="geometry"><mxPoint as="offset"/></mxGeometry></mxCell><mxCell id="44" value="3. Verify New User" style="rounded=1;whiteSpace=wrap;html=1;" parent="1" vertex="1"><mxGeometry x="505" y="1410" width="120" height="30" as="geometry"/></mxCell><mxCell id="48" value="5. User can Login" style="rounded=1;whiteSpace=wrap;html=1;" parent="1" vertex="1"><mxGeometry x="75" y="1500" width="120" height="30" as="geometry"/></mxCell><mxCell id="79" value="Login Flow" style="text;html=1;strokeColor=none;fillColor=none;align=center;verticalAlign=middle;whiteSpace=wrap;rounded=0;" parent="1" vertex="1"><mxGeometry x="40" y="1610" width="60" height="30" as="geometry"/></mxCell><mxCell id="80" value="" style="group" parent="1" vertex="1" connectable="0"><mxGeometry x="120" y="1690" width="30" height="240" as="geometry"/></mxCell><mxCell id="81" value="" style="endArrow=none;html=1;rounded=0;" parent="80" edge="1"><mxGeometry width="50" height="50" relative="1" as="geometry"><mxPoint x="14.710000000000008" y="52.6829268292683" as="sourcePoint"/><mxPoint x="14.710000000000008" y="240" as="targetPoint"/></mxGeometry></mxCell><mxCell id="112" value="User" style="edgeLabel;html=1;align=center;verticalAlign=middle;resizable=0;points=[];" parent="81" vertex="1" connectable="0"><mxGeometry x="-0.9112" y="-1" relative="1" as="geometry"><mxPoint as="offset"/></mxGeometry></mxCell><mxCell id="83" value="" style="group" parent="1" vertex="1" connectable="0"><mxGeometry x="330" y="1690" width="75" height="280" as="geometry"/></mxCell><mxCell id="84" value="" style="endArrow=none;html=1;rounded=0;" parent="83" edge="1"><mxGeometry width="50" height="50" relative="1" as="geometry"><mxPoint x="14.710000000000008" y="61.463414634146346" as="sourcePoint"/><mxPoint x="15" y="220" as="targetPoint"/></mxGeometry></mxCell><mxCell id="113" value="System" style="edgeLabel;html=1;align=center;verticalAlign=middle;resizable=0;points=[];" parent="84" vertex="1" connectable="0"><mxGeometry x="-0.9986" y="1" relative="1" as="geometry"><mxPoint as="offset"/></mxGeometry></mxCell><mxCell id="86" value="2. Check user &amp;amp; is_verified" style="rounded=1;whiteSpace=wrap;html=1;" parent="83" vertex="1"><mxGeometry x="-45" y="140" width="120" height="30" as="geometry"/></mxCell><mxCell id="88" value="1. Login" style="rounded=1;whiteSpace=wrap;html=1;" parent="1" vertex="1"><mxGeometry x="75" y="1790" width="120" height="30" as="geometry"/></mxCell><mxCell id="93" value="3. User Login" style="rounded=1;whiteSpace=wrap;html=1;" parent="1" vertex="1"><mxGeometry x="75" y="1870" width="120" height="30" as="geometry"/></mxCell><mxCell id="100" value="Order Flow" style="text;html=1;strokeColor=none;fillColor=none;align=center;verticalAlign=middle;whiteSpace=wrap;rounded=0;" parent="1" vertex="1"><mxGeometry x="40" y="1990" width="60" height="30" as="geometry"/></mxCell><mxCell id="105" value="" style="endArrow=none;html=1;rounded=0;" parent="1" edge="1"><mxGeometry x="330" y="2070" width="50" height="50" as="geometry"><mxPoint x="345" y="2120" as="sourcePoint"/><mxPoint x="345" y="2440" as="targetPoint"/></mxGeometry></mxCell><mxCell id="111" value="System" style="edgeLabel;html=1;align=center;verticalAlign=middle;resizable=0;points=[];" parent="105" vertex="1" connectable="0"><mxGeometry x="-0.9806" y="-1" relative="1" as="geometry"><mxPoint x="1" as="offset"/></mxGeometry></mxCell><mxCell id="102" value="" style="endArrow=none;html=1;rounded=0;" parent="1" edge="1"><mxGeometry x="120" y="2070" width="50" height="50" as="geometry"><mxPoint x="135" y="2120" as="sourcePoint"/><mxPoint x="135" y="2440" as="targetPoint"/></mxGeometry></mxCell><mxCell id="110" value="User" style="edgeLabel;html=1;align=center;verticalAlign=middle;resizable=0;points=[];" parent="102" vertex="1" connectable="0"><mxGeometry x="-0.9681" y="1" relative="1" as="geometry"><mxPoint x="-1" as="offset"/></mxGeometry></mxCell><mxCell id="108" value="1. Login" style="rounded=1;whiteSpace=wrap;html=1;" parent="1" vertex="1"><mxGeometry x="75" y="2170" width="120" height="30" as="geometry"/></mxCell><mxCell id="109" value="2. View Books" style="rounded=1;whiteSpace=wrap;html=1;" parent="1" vertex="1"><mxGeometry x="75" y="2210" width="120" height="30" as="geometry"/></mxCell><mxCell id="118" value="3. View Details" style="rounded=1;whiteSpace=wrap;html=1;" parent="1" vertex="1"><mxGeometry x="75" y="2250" width="120" height="30" as="geometry"/></mxCell><mxCell id="119" value="4. Order" style="rounded=1;whiteSpace=wrap;html=1;" parent="1" vertex="1"><mxGeometry x="75" y="2290" width="120" height="30" as="geometry"/></mxCell><mxCell id="120" value="5. Create Order" style="rounded=1;whiteSpace=wrap;html=1;" parent="1" vertex="1"><mxGeometry x="285" y="2330" width="120" height="30" as="geometry"/></mxCell><mxCell id="122" value="ORDER_STATUS" style="swimlane;fontStyle=0;childLayout=stackLayout;horizontal=1;startSize=30;horizontalStack=0;resizeParent=1;resizeParentMax=0;resizeLast=0;collapsible=1;marginBottom=0;" parent="1" vertex="1"><mxGeometry x="240" y="440" width="160" height="180" as="geometry"/></mxCell><mxCell id="123" value="PAID" style="text;strokeColor=none;fillColor=none;align=left;verticalAlign=middle;spacingLeft=4;spacingRight=4;overflow=hidden;points=[[0,0.5],[1,0.5]];portConstraint=eastwest;rotatable=0;" parent="122" vertex="1"><mxGeometry y="30" width="160" height="30" as="geometry"/></mxCell><mxCell id="124" value="CANCELLED" style="text;strokeColor=none;fillColor=none;align=left;verticalAlign=middle;spacingLeft=4;spacingRight=4;overflow=hidden;points=[[0,0.5],[1,0.5]];portConstraint=eastwest;rotatable=0;" parent="122" vertex="1"><mxGeometry y="60" width="160" height="30" as="geometry"/></mxCell><mxCell id="125" value="WAITING_FOR_PAYMENT" style="text;strokeColor=none;fillColor=none;align=left;verticalAlign=middle;spacingLeft=4;spacingRight=4;overflow=hidden;points=[[0,0.5],[1,0.5]];portConstraint=eastwest;rotatable=0;" parent="122" vertex="1"><mxGeometry y="90" width="160" height="30" as="geometry"/></mxCell><mxCell id="134" value="DECLINED" style="text;strokeColor=none;fillColor=none;align=left;verticalAlign=middle;spacingLeft=4;spacingRight=4;overflow=hidden;points=[[0,0.5],[1,0.5]];portConstraint=eastwest;rotatable=0;" parent="122" vertex="1"><mxGeometry y="120" width="160" height="30" as="geometry"/></mxCell><mxCell id="135" value="ON_SHIPPING" style="text;strokeColor=none;fillColor=none;align=left;verticalAlign=middle;spacingLeft=4;spacingRight=4;overflow=hidden;points=[[0,0.5],[1,0.5]];portConstraint=eastwest;rotatable=0;" parent="122" vertex="1"><mxGeometry y="150" width="160" height="30" as="geometry"/></mxCell><mxCell id="170" value="Users" style="swimlane;fontStyle=1;align=center;verticalAlign=top;childLayout=stackLayout;horizontal=1;startSize=26;horizontalStack=0;resizeParent=1;resizeParentMax=0;resizeLast=0;collapsible=1;marginBottom=0;" parent="1" vertex="1"><mxGeometry x="40" y="40" width="160" height="344" as="geometry"/></mxCell><mxCell id="171" value="id: Str" style="text;strokeColor=none;fillColor=none;align=left;verticalAlign=middle;spacingLeft=4;spacingRight=4;overflow=hidden;points=[[0,0.5],[1,0.5]];portConstraint=eastwest;rotatable=0;" parent="170" vertex="1"><mxGeometry y="26" width="160" height="30" as="geometry"/></mxCell><mxCell id="172" value="name: Str" style="text;strokeColor=none;fillColor=none;align=left;verticalAlign=middle;spacingLeft=4;spacingRight=4;overflow=hidden;points=[[0,0.5],[1,0.5]];portConstraint=eastwest;rotatable=0;" parent="170" vertex="1"><mxGeometry y="56" width="160" height="30" as="geometry"/></mxCell><mxCell id="245" value="username: Str" style="text;strokeColor=none;fillColor=none;align=left;verticalAlign=middle;spacingLeft=4;spacingRight=4;overflow=hidden;points=[[0,0.5],[1,0.5]];portConstraint=eastwest;rotatable=0;" parent="170" vertex="1"><mxGeometry y="86" width="160" height="30" as="geometry"/></mxCell><mxCell id="173" value="password: Str" style="text;strokeColor=none;fillColor=none;align=left;verticalAlign=middle;spacingLeft=4;spacingRight=4;overflow=hidden;points=[[0,0.5],[1,0.5]];portConstraint=eastwest;rotatable=0;" parent="170" vertex="1"><mxGeometry y="116" width="160" height="30" as="geometry"/></mxCell><mxCell id="174" value="is_admin: Bool" style="text;strokeColor=none;fillColor=none;align=left;verticalAlign=middle;spacingLeft=4;spacingRight=4;overflow=hidden;points=[[0,0.5],[1,0.5]];portConstraint=eastwest;rotatable=0;" parent="170" vertex="1"><mxGeometry y="146" width="160" height="30" as="geometry"/></mxCell><mxCell id="175" value="is_verified: Bool" style="text;strokeColor=none;fillColor=none;align=left;verticalAlign=middle;spacingLeft=4;spacingRight=4;overflow=hidden;points=[[0,0.5],[1,0.5]];portConstraint=eastwest;rotatable=0;" parent="170" vertex="1"><mxGeometry y="176" width="160" height="30" as="geometry"/></mxCell><mxCell id="176" value="" style="line;strokeWidth=1;fillColor=none;align=left;verticalAlign=middle;spacingTop=-1;spacingLeft=3;spacingRight=3;rotatable=0;labelPosition=right;points=[];portConstraint=eastwest;" parent="170" vertex="1"><mxGeometry y="206" width="160" height="8" as="geometry"/></mxCell><mxCell id="295" value="+ Get()" style="text;strokeColor=none;fillColor=none;align=left;verticalAlign=top;spacingLeft=4;spacingRight=4;overflow=hidden;rotatable=0;points=[[0,0.5],[1,0.5]];portConstraint=eastwest;" vertex="1" parent="170"><mxGeometry y="214" width="160" height="26" as="geometry"/></mxCell><mxCell id="177" value="+ GetByUsername()" style="text;strokeColor=none;fillColor=none;align=left;verticalAlign=top;spacingLeft=4;spacingRight=4;overflow=hidden;rotatable=0;points=[[0,0.5],[1,0.5]];portConstraint=eastwest;" parent="170" vertex="1"><mxGeometry y="240" width="160" height="26" as="geometry"/></mxCell><mxCell id="294" value="+ GetAll()" style="text;strokeColor=none;fillColor=none;align=left;verticalAlign=top;spacingLeft=4;spacingRight=4;overflow=hidden;rotatable=0;points=[[0,0.5],[1,0.5]];portConstraint=eastwest;" vertex="1" parent="170"><mxGeometry y="266" width="160" height="26" as="geometry"/></mxCell><mxCell id="178" value="+ Create()" style="text;strokeColor=none;fillColor=none;align=left;verticalAlign=top;spacingLeft=4;spacingRight=4;overflow=hidden;rotatable=0;points=[[0,0.5],[1,0.5]];portConstraint=eastwest;" parent="170" vertex="1"><mxGeometry y="292" width="160" height="26" as="geometry"/></mxCell><mxCell id="179" value="+ SetVerified()" style="text;strokeColor=none;fillColor=none;align=left;verticalAlign=top;spacingLeft=4;spacingRight=4;overflow=hidden;rotatable=0;points=[[0,0.5],[1,0.5]];portConstraint=eastwest;" parent="170" vertex="1"><mxGeometry y="318" width="160" height="26" as="geometry"/></mxCell><mxCell id="180" value="Books" style="swimlane;fontStyle=1;align=center;verticalAlign=top;childLayout=stackLayout;horizontal=1;startSize=26;horizontalStack=0;resizeParent=1;resizeParentMax=0;resizeLast=0;collapsible=1;marginBottom=0;" parent="1" vertex="1"><mxGeometry x="640" y="40" width="160" height="352" as="geometry"/></mxCell><mxCell id="181" value="id: Str" style="text;strokeColor=none;fillColor=none;align=left;verticalAlign=middle;spacingLeft=4;spacingRight=4;overflow=hidden;points=[[0,0.5],[1,0.5]];portConstraint=eastwest;rotatable=0;" parent="180" vertex="1"><mxGeometry y="26" width="160" height="30" as="geometry"/></mxCell><mxCell id="182" value="name: Str" style="text;strokeColor=none;fillColor=none;align=left;verticalAlign=middle;spacingLeft=4;spacingRight=4;overflow=hidden;points=[[0,0.5],[1,0.5]];portConstraint=eastwest;rotatable=0;" parent="180" vertex="1"><mxGeometry y="56" width="160" height="30" as="geometry"/></mxCell><mxCell id="183" value="author: Str" style="text;strokeColor=none;fillColor=none;align=left;verticalAlign=middle;spacingLeft=4;spacingRight=4;overflow=hidden;points=[[0,0.5],[1,0.5]];portConstraint=eastwest;rotatable=0;" parent="180" vertex="1"><mxGeometry y="86" width="160" height="30" as="geometry"/></mxCell><mxCell id="285" value="publisher: Str" style="text;strokeColor=none;fillColor=none;align=left;verticalAlign=middle;spacingLeft=4;spacingRight=4;overflow=hidden;points=[[0,0.5],[1,0.5]];portConstraint=eastwest;rotatable=0;" parent="180" vertex="1"><mxGeometry y="116" width="160" height="30" as="geometry"/></mxCell><mxCell id="184" value="category: Str" style="text;strokeColor=none;fillColor=none;align=left;verticalAlign=middle;spacingLeft=4;spacingRight=4;overflow=hidden;points=[[0,0.5],[1,0.5]];portConstraint=eastwest;rotatable=0;" parent="180" vertex="1"><mxGeometry y="146" width="160" height="30" as="geometry"/></mxCell><mxCell id="185" value="language: Str" style="text;strokeColor=none;fillColor=none;align=left;verticalAlign=middle;spacingLeft=4;spacingRight=4;overflow=hidden;points=[[0,0.5],[1,0.5]];portConstraint=eastwest;rotatable=0;" parent="180" vertex="1"><mxGeometry y="176" width="160" height="30" as="geometry"/></mxCell><mxCell id="186" value="price: int" style="text;strokeColor=none;fillColor=none;align=left;verticalAlign=middle;spacingLeft=4;spacingRight=4;overflow=hidden;points=[[0,0.5],[1,0.5]];portConstraint=eastwest;rotatable=0;" parent="180" vertex="1"><mxGeometry y="206" width="160" height="30" as="geometry"/></mxCell><mxCell id="187" value="qty: int" style="text;strokeColor=none;fillColor=none;align=left;verticalAlign=middle;spacingLeft=4;spacingRight=4;overflow=hidden;points=[[0,0.5],[1,0.5]];portConstraint=eastwest;rotatable=0;" parent="180" vertex="1"><mxGeometry y="236" width="160" height="30" as="geometry"/></mxCell><mxCell id="188" value="" style="line;strokeWidth=1;fillColor=none;align=left;verticalAlign=middle;spacingTop=-1;spacingLeft=3;spacingRight=3;rotatable=0;labelPosition=right;points=[];portConstraint=eastwest;" parent="180" vertex="1"><mxGeometry y="266" width="160" height="8" as="geometry"/></mxCell><mxCell id="292" value="+ Get()" style="text;strokeColor=none;fillColor=none;align=left;verticalAlign=top;spacingLeft=4;spacingRight=4;overflow=hidden;rotatable=0;points=[[0,0.5],[1,0.5]];portConstraint=eastwest;" vertex="1" parent="180"><mxGeometry y="274" width="160" height="26" as="geometry"/></mxCell><mxCell id="216" value="+ GetAll()" style="text;strokeColor=none;fillColor=none;align=left;verticalAlign=top;spacingLeft=4;spacingRight=4;overflow=hidden;rotatable=0;points=[[0,0.5],[1,0.5]];portConstraint=eastwest;" parent="180" vertex="1"><mxGeometry y="300" width="160" height="26" as="geometry"/></mxCell><mxCell id="189" value="+ Create()" style="text;strokeColor=none;fillColor=none;align=left;verticalAlign=top;spacingLeft=4;spacingRight=4;overflow=hidden;rotatable=0;points=[[0,0.5],[1,0.5]];portConstraint=eastwest;" parent="180" vertex="1"><mxGeometry y="326" width="160" height="26" as="geometry"/></mxCell><mxCell id="190" value="Orders" style="swimlane;fontStyle=1;align=center;verticalAlign=top;childLayout=stackLayout;horizontal=1;startSize=26;horizontalStack=0;resizeParent=1;resizeParentMax=0;resizeLast=0;collapsible=1;marginBottom=0;" parent="1" vertex="1"><mxGeometry x="240" y="40" width="180" height="370" as="geometry"/></mxCell><mxCell id="191" value="id: Str" style="text;strokeColor=none;fillColor=none;align=left;verticalAlign=middle;spacingLeft=4;spacingRight=4;overflow=hidden;points=[[0,0.5],[1,0.5]];portConstraint=eastwest;rotatable=0;" parent="190" vertex="1"><mxGeometry y="26" width="180" height="30" as="geometry"/></mxCell><mxCell id="192" value="user_id: Str" style="text;strokeColor=none;fillColor=none;align=left;verticalAlign=middle;spacingLeft=4;spacingRight=4;overflow=hidden;points=[[0,0.5],[1,0.5]];portConstraint=eastwest;rotatable=0;" parent="190" vertex="1"><mxGeometry y="56" width="180" height="30" as="geometry"/></mxCell><mxCell id="193" value="book_id: Str" style="text;strokeColor=none;fillColor=none;align=left;verticalAlign=middle;spacingLeft=4;spacingRight=4;overflow=hidden;points=[[0,0.5],[1,0.5]];portConstraint=eastwest;rotatable=0;" parent="190" vertex="1"><mxGeometry y="86" width="180" height="30" as="geometry"/></mxCell><mxCell id="194" value="qty: Int" style="text;strokeColor=none;fillColor=none;align=left;verticalAlign=middle;spacingLeft=4;spacingRight=4;overflow=hidden;points=[[0,0.5],[1,0.5]];portConstraint=eastwest;rotatable=0;" parent="190" vertex="1"><mxGeometry y="116" width="180" height="30" as="geometry"/></mxCell><mxCell id="195" value="order_time: Str" style="text;strokeColor=none;fillColor=none;align=left;verticalAlign=middle;spacingLeft=4;spacingRight=4;overflow=hidden;points=[[0,0.5],[1,0.5]];portConstraint=eastwest;rotatable=0;" parent="190" vertex="1"><mxGeometry y="146" width="180" height="30" as="geometry"/></mxCell><mxCell id="196" value="status: Str (ORDER_STATUS)" style="text;strokeColor=none;fillColor=none;align=left;verticalAlign=middle;spacingLeft=4;spacingRight=4;overflow=hidden;points=[[0,0.5],[1,0.5]];portConstraint=eastwest;rotatable=0;" parent="190" vertex="1"><mxGeometry y="176" width="180" height="30" as="geometry"/></mxCell><mxCell id="197" value="" style="line;strokeWidth=1;fillColor=none;align=left;verticalAlign=middle;spacingTop=-1;spacingLeft=3;spacingRight=3;rotatable=0;labelPosition=right;points=[];portConstraint=eastwest;" parent="190" vertex="1"><mxGeometry y="206" width="180" height="8" as="geometry"/></mxCell><mxCell id="198" value="+ Get()" style="text;strokeColor=none;fillColor=none;align=left;verticalAlign=top;spacingLeft=4;spacingRight=4;overflow=hidden;rotatable=0;points=[[0,0.5],[1,0.5]];portConstraint=eastwest;" parent="190" vertex="1"><mxGeometry y="214" width="180" height="26" as="geometry"/></mxCell><mxCell id="199" value="+ GetAll()" style="text;strokeColor=none;fillColor=none;align=left;verticalAlign=top;spacingLeft=4;spacingRight=4;overflow=hidden;rotatable=0;points=[[0,0.5],[1,0.5]];portConstraint=eastwest;" parent="190" vertex="1"><mxGeometry y="240" width="180" height="26" as="geometry"/></mxCell><mxCell id="200" value="+ GetAllByUserId()" style="text;strokeColor=none;fillColor=none;align=left;verticalAlign=top;spacingLeft=4;spacingRight=4;overflow=hidden;rotatable=0;points=[[0,0.5],[1,0.5]];portConstraint=eastwest;" parent="190" vertex="1"><mxGeometry y="266" width="180" height="26" as="geometry"/></mxCell><mxCell id="201" value="+ GetAllByStatus()" style="text;strokeColor=none;fillColor=none;align=left;verticalAlign=top;spacingLeft=4;spacingRight=4;overflow=hidden;rotatable=0;points=[[0,0.5],[1,0.5]];portConstraint=eastwest;" parent="190" vertex="1"><mxGeometry y="292" width="180" height="26" as="geometry"/></mxCell><mxCell id="202" value="+ Create()" style="text;strokeColor=none;fillColor=none;align=left;verticalAlign=top;spacingLeft=4;spacingRight=4;overflow=hidden;rotatable=0;points=[[0,0.5],[1,0.5]];portConstraint=eastwest;" parent="190" vertex="1"><mxGeometry y="318" width="180" height="26" as="geometry"/></mxCell><mxCell id="203" value="+ SetStatus()" style="text;strokeColor=none;fillColor=none;align=left;verticalAlign=top;spacingLeft=4;spacingRight=4;overflow=hidden;rotatable=0;points=[[0,0.5],[1,0.5]];portConstraint=eastwest;" parent="190" vertex="1"><mxGeometry y="344" width="180" height="26" as="geometry"/></mxCell><mxCell id="204" value="Payments" style="swimlane;fontStyle=1;align=center;verticalAlign=top;childLayout=stackLayout;horizontal=1;startSize=26;horizontalStack=0;resizeParent=1;resizeParentMax=0;resizeLast=0;collapsible=1;marginBottom=0;" parent="1" vertex="1"><mxGeometry x="440" y="40" width="160" height="232" as="geometry"/></mxCell><mxCell id="205" value="id: Str" style="text;strokeColor=none;fillColor=none;align=left;verticalAlign=middle;spacingLeft=4;spacingRight=4;overflow=hidden;points=[[0,0.5],[1,0.5]];portConstraint=eastwest;rotatable=0;" parent="204" vertex="1"><mxGeometry y="26" width="160" height="30" as="geometry"/></mxCell><mxCell id="206" value="user_id: Str" style="text;strokeColor=none;fillColor=none;align=left;verticalAlign=middle;spacingLeft=4;spacingRight=4;overflow=hidden;points=[[0,0.5],[1,0.5]];portConstraint=eastwest;rotatable=0;" parent="204" vertex="1"><mxGeometry y="56" width="160" height="30" as="geometry"/></mxCell><mxCell id="207" value="order_id: Str" style="text;strokeColor=none;fillColor=none;align=left;verticalAlign=middle;spacingLeft=4;spacingRight=4;overflow=hidden;points=[[0,0.5],[1,0.5]];portConstraint=eastwest;rotatable=0;" parent="204" vertex="1"><mxGeometry y="86" width="160" height="30" as="geometry"/></mxCell><mxCell id="208" value="receipt_b64: Str" style="text;strokeColor=none;fillColor=none;align=left;verticalAlign=middle;spacingLeft=4;spacingRight=4;overflow=hidden;points=[[0,0.5],[1,0.5]];portConstraint=eastwest;rotatable=0;" parent="204" vertex="1"><mxGeometry y="116" width="160" height="30" as="geometry"/></mxCell><mxCell id="209" value="" style="line;strokeWidth=1;fillColor=none;align=left;verticalAlign=middle;spacingTop=-1;spacingLeft=3;spacingRight=3;rotatable=0;labelPosition=right;points=[];portConstraint=eastwest;" parent="204" vertex="1"><mxGeometry y="146" width="160" height="8" as="geometry"/></mxCell><mxCell id="210" value="+ GetByUserId()" style="text;strokeColor=none;fillColor=none;align=left;verticalAlign=top;spacingLeft=4;spacingRight=4;overflow=hidden;rotatable=0;points=[[0,0.5],[1,0.5]];portConstraint=eastwest;" parent="204" vertex="1"><mxGeometry y="154" width="160" height="26" as="geometry"/></mxCell><mxCell id="211" value="+ GetByOrderId()" style="text;strokeColor=none;fillColor=none;align=left;verticalAlign=top;spacingLeft=4;spacingRight=4;overflow=hidden;rotatable=0;points=[[0,0.5],[1,0.5]];portConstraint=eastwest;" parent="204" vertex="1"><mxGeometry y="180" width="160" height="26" as="geometry"/></mxCell><mxCell id="217" value="+ Create()" style="text;strokeColor=none;fillColor=none;align=left;verticalAlign=top;spacingLeft=4;spacingRight=4;overflow=hidden;rotatable=0;points=[[0,0.5],[1,0.5]];portConstraint=eastwest;" parent="204" vertex="1"><mxGeometry y="206" width="160" height="26" as="geometry"/></mxCell><mxCell id="214" value="" style="rounded=0;orthogonalLoop=1;jettySize=auto;html=1;" parent="1" source="212" target="213" edge="1"><mxGeometry relative="1" as="geometry"/></mxCell><mxCell id="219" style="edgeStyle=none;rounded=0;orthogonalLoop=1;jettySize=auto;html=1;entryX=0.429;entryY=1;entryDx=0;entryDy=0;entryPerimeter=0;" parent="1" source="212" target="218" edge="1"><mxGeometry relative="1" as="geometry"/></mxCell><mxCell id="220" style="edgeStyle=none;rounded=0;orthogonalLoop=1;jettySize=auto;html=1;" parent="1" source="212" target="215" edge="1"><mxGeometry relative="1" as="geometry"/></mxCell><mxCell id="222" style="edgeStyle=none;rounded=0;orthogonalLoop=1;jettySize=auto;html=1;entryX=1;entryY=1;entryDx=0;entryDy=0;" parent="1" source="212" target="221" edge="1"><mxGeometry relative="1" as="geometry"/></mxCell><mxCell id="224" style="edgeStyle=none;rounded=0;orthogonalLoop=1;jettySize=auto;html=1;entryX=1;entryY=0.5;entryDx=0;entryDy=0;" parent="1" source="212" target="223" edge="1"><mxGeometry relative="1" as="geometry"/></mxCell><mxCell id="226" style="edgeStyle=none;rounded=0;orthogonalLoop=1;jettySize=auto;html=1;entryX=0.969;entryY=-0.008;entryDx=0;entryDy=0;entryPerimeter=0;" parent="1" source="212" target="225" edge="1"><mxGeometry relative="1" as="geometry"/></mxCell><mxCell id="212" value="User" style="rounded=1;whiteSpace=wrap;html=1;" parent="1" vertex="1"><mxGeometry x="580" y="530" width="60" height="30" as="geometry"/></mxCell><mxCell id="213" value="Login" style="rounded=1;whiteSpace=wrap;html=1;" parent="1" vertex="1"><mxGeometry x="680" y="530" width="60" height="30" as="geometry"/></mxCell><mxCell id="215" value="View Books" style="rounded=1;whiteSpace=wrap;html=1;" parent="1" vertex="1"><mxGeometry x="680" y="460" width="60" height="40" as="geometry"/></mxCell><mxCell id="218" value="View Book&lt;br&gt;Detail" style="rounded=1;whiteSpace=wrap;html=1;" parent="1" vertex="1"><mxGeometry x="590" y="430" width="70" height="50" as="geometry"/></mxCell><mxCell id="221" value="Place Order" style="rounded=1;whiteSpace=wrap;html=1;" parent="1" vertex="1"><mxGeometry x="490" y="440" width="60" height="40" as="geometry"/></mxCell><mxCell id="223" value="View Order List" style="rounded=1;whiteSpace=wrap;html=1;" parent="1" vertex="1"><mxGeometry x="470" y="520" width="70" height="50" as="geometry"/></mxCell><mxCell id="225" value="Cancel Order" style="rounded=1;whiteSpace=wrap;html=1;" parent="1" vertex="1"><mxGeometry x="510" y="590" width="70" height="50" as="geometry"/></mxCell><mxCell id="229" value="" style="edgeStyle=none;rounded=0;orthogonalLoop=1;jettySize=auto;html=1;" parent="1" source="227" target="228" edge="1"><mxGeometry relative="1" as="geometry"/></mxCell><mxCell id="232" style="edgeStyle=none;rounded=0;orthogonalLoop=1;jettySize=auto;html=1;entryX=-0.006;entryY=0.908;entryDx=0;entryDy=0;entryPerimeter=0;" parent="1" source="227" target="231" edge="1"><mxGeometry relative="1" as="geometry"/></mxCell><mxCell id="233" style="edgeStyle=none;rounded=0;orthogonalLoop=1;jettySize=auto;html=1;entryX=-0.002;entryY=0.349;entryDx=0;entryDy=0;entryPerimeter=0;" parent="1" source="227" target="230" edge="1"><mxGeometry relative="1" as="geometry"/></mxCell><mxCell id="236" style="edgeStyle=none;rounded=0;orthogonalLoop=1;jettySize=auto;html=1;entryX=0;entryY=0.25;entryDx=0;entryDy=0;" parent="1" source="227" target="234" edge="1"><mxGeometry relative="1" as="geometry"/></mxCell><mxCell id="237" style="edgeStyle=none;rounded=0;orthogonalLoop=1;jettySize=auto;html=1;entryX=0.5;entryY=0;entryDx=0;entryDy=0;" parent="1" source="227" target="235" edge="1"><mxGeometry relative="1" as="geometry"/></mxCell><mxCell id="239" style="edgeStyle=none;rounded=0;orthogonalLoop=1;jettySize=auto;html=1;exitX=0;exitY=1;exitDx=0;exitDy=0;" parent="1" source="227" target="238" edge="1"><mxGeometry relative="1" as="geometry"/></mxCell><mxCell id="227" value="Admin" style="rounded=1;whiteSpace=wrap;html=1;" parent="1" vertex="1"><mxGeometry x="660" y="680" width="60" height="30" as="geometry"/></mxCell><mxCell id="228" value="Login" style="rounded=1;whiteSpace=wrap;html=1;" parent="1" vertex="1"><mxGeometry x="660" y="610" width="60" height="30" as="geometry"/></mxCell><mxCell id="230" value="Verify User" style="rounded=1;whiteSpace=wrap;html=1;" parent="1" vertex="1"><mxGeometry x="770" y="680" width="60" height="40" as="geometry"/></mxCell><mxCell id="231" value="View Users" style="rounded=1;whiteSpace=wrap;html=1;" parent="1" vertex="1"><mxGeometry x="750" y="620" width="60" height="40" as="geometry"/></mxCell><mxCell id="234" value="View Orders" style="rounded=1;whiteSpace=wrap;html=1;" parent="1" vertex="1"><mxGeometry x="760" y="740" width="60" height="40" as="geometry"/></mxCell><mxCell id="235" value="Decline Order" style="rounded=1;whiteSpace=wrap;html=1;" parent="1" vertex="1"><mxGeometry x="660" y="760" width="60" height="40" as="geometry"/></mxCell><mxCell id="238" value="Send Book" style="rounded=1;whiteSpace=wrap;html=1;" parent="1" vertex="1"><mxGeometry x="570" y="720" width="60" height="40" as="geometry"/></mxCell><mxCell id="240" value="Login" style="strokeWidth=1;shadow=0;dashed=0;align=center;html=1;shape=mxgraph.mockup.containers.window;align=left;verticalAlign=top;spacingLeft=8;strokeColor2=#008cff;strokeColor3=#c4c4c4;fontColor=#666666;mainText=;fontSize=17;labelBackgroundColor=none;" parent="1" vertex="1"><mxGeometry x="920" y="40" width="550" height="380" as="geometry"/></mxCell><mxCell id="241" value="********" style="strokeWidth=1;shadow=0;dashed=0;align=center;html=1;shape=mxgraph.mockup.forms.pwField;strokeColor=#999999;mainText=;align=left;fontColor=#666666;fontSize=17;spacingLeft=3;" parent="1" vertex="1"><mxGeometry x="1120" y="253" width="150" height="30" as="geometry"/></mxCell><mxCell id="242" value="" style="strokeWidth=1;shadow=0;dashed=0;align=center;html=1;shape=mxgraph.mockup.forms.pwField;strokeColor=#999999;mainText=;align=left;fontColor=#666666;fontSize=17;spacingLeft=3;" parent="1" vertex="1"><mxGeometry x="1120" y="193" width="150" height="30" as="geometry"/></mxCell><mxCell id="243" value="Username" style="text;html=1;align=left;verticalAlign=middle;resizable=0;points=[];autosize=1;strokeColor=none;fillColor=none;" parent="1" vertex="1"><mxGeometry x="1120" y="173" width="70" height="20" as="geometry"/></mxCell><mxCell id="244" value="Password" style="text;html=1;align=left;verticalAlign=middle;resizable=0;points=[];autosize=1;strokeColor=none;fillColor=none;" parent="1" vertex="1"><mxGeometry x="1120" y="233" width="70" height="20" as="geometry"/></mxCell><mxCell id="246" value="&lt;font style=&quot;font-size: 12px&quot;&gt;Login&lt;/font&gt;" style="strokeWidth=1;shadow=0;dashed=0;align=center;html=1;shape=mxgraph.mockup.buttons.button;strokeColor=#666666;fontColor=#ffffff;mainText=;buttonStyle=round;fontSize=17;fontStyle=1;fillColor=#008cff;whiteSpace=wrap;" parent="1" vertex="1"><mxGeometry x="1120" y="313" width="70" height="20" as="geometry"/></mxCell><mxCell id="247" value="&lt;font style=&quot;font-size: 12px&quot;&gt;Register&lt;/font&gt;" style="strokeWidth=1;shadow=0;dashed=0;align=center;html=1;shape=mxgraph.mockup.buttons.button;strokeColor=#666666;fontColor=#ffffff;mainText=;buttonStyle=round;fontSize=17;fontStyle=1;fillColor=#008cff;whiteSpace=wrap;" parent="1" vertex="1"><mxGeometry x="1200" y="313" width="70" height="20" as="geometry"/></mxCell><mxCell id="248" value="Register" style="strokeWidth=1;shadow=0;dashed=0;align=center;html=1;shape=mxgraph.mockup.containers.window;align=left;verticalAlign=top;spacingLeft=8;strokeColor2=#008cff;strokeColor3=#c4c4c4;fontColor=#666666;mainText=;fontSize=17;labelBackgroundColor=none;" parent="1" vertex="1"><mxGeometry x="1560" y="40" width="550" height="380" as="geometry"/></mxCell><mxCell id="249" value="********" style="strokeWidth=1;shadow=0;dashed=0;align=center;html=1;shape=mxgraph.mockup.forms.pwField;strokeColor=#999999;mainText=;align=left;fontColor=#666666;fontSize=17;spacingLeft=3;" parent="1" vertex="1"><mxGeometry x="1760" y="243" width="150" height="30" as="geometry"/></mxCell><mxCell id="252" value="Password" style="text;html=1;align=left;verticalAlign=middle;resizable=0;points=[];autosize=1;strokeColor=none;fillColor=none;" parent="1" vertex="1"><mxGeometry x="1760" y="223" width="70" height="20" as="geometry"/></mxCell><mxCell id="254" value="&lt;font style=&quot;font-size: 12px&quot;&gt;Register&lt;/font&gt;" style="strokeWidth=1;shadow=0;dashed=0;align=center;html=1;shape=mxgraph.mockup.buttons.button;strokeColor=#666666;fontColor=#ffffff;mainText=;buttonStyle=round;fontSize=17;fontStyle=1;fillColor=#008cff;whiteSpace=wrap;" parent="1" vertex="1"><mxGeometry x="1800" y="293" width="70" height="20" as="geometry"/></mxCell><mxCell id="255" value="" style="group" parent="1" vertex="1" connectable="0"><mxGeometry x="1760" y="123" width="150" height="50" as="geometry"/></mxCell><mxCell id="250" value="" style="strokeWidth=1;shadow=0;dashed=0;align=center;html=1;shape=mxgraph.mockup.forms.pwField;strokeColor=#999999;mainText=;align=left;fontColor=#666666;fontSize=17;spacingLeft=3;" parent="255" vertex="1"><mxGeometry y="20" width="150" height="30" as="geometry"/></mxCell><mxCell id="251" value="Username" style="text;html=1;align=left;verticalAlign=middle;resizable=0;points=[];autosize=1;strokeColor=none;fillColor=none;" parent="255" vertex="1"><mxGeometry width="70" height="20" as="geometry"/></mxCell><mxCell id="256" value="" style="group" parent="1" vertex="1" connectable="0"><mxGeometry x="1760" y="173" width="150" height="50" as="geometry"/></mxCell><mxCell id="257" value="" style="strokeWidth=1;shadow=0;dashed=0;align=center;html=1;shape=mxgraph.mockup.forms.pwField;strokeColor=#999999;mainText=;align=left;fontColor=#666666;fontSize=17;spacingLeft=3;" parent="256" vertex="1"><mxGeometry y="20" width="150" height="30" as="geometry"/></mxCell><mxCell id="258" value="Name" style="text;html=1;align=left;verticalAlign=middle;resizable=0;points=[];autosize=1;strokeColor=none;fillColor=none;" parent="256" vertex="1"><mxGeometry width="50" height="20" as="geometry"/></mxCell><mxCell id="260" value="Books (User)" style="strokeWidth=1;shadow=0;dashed=0;align=center;html=1;shape=mxgraph.mockup.containers.window;align=left;verticalAlign=top;spacingLeft=8;strokeColor2=#008cff;strokeColor3=#c4c4c4;fontColor=#666666;mainText=;fontSize=17;labelBackgroundColor=none;" parent="1" vertex="1"><mxGeometry x="920" y="480" width="550" height="380" as="geometry"/></mxCell><mxCell id="267" value="" style="verticalLabelPosition=bottom;shadow=0;dashed=0;align=center;html=1;verticalAlign=top;strokeWidth=1;shape=mxgraph.mockup.graphics.simpleIcon;strokeColor=#999999;fontSize=12;" parent="1" vertex="1"><mxGeometry x="960" y="560" width="460" height="230" as="geometry"/></mxCell><mxCell id="268" value="Tabel" style="text;html=1;align=center;verticalAlign=middle;resizable=0;points=[];autosize=1;strokeColor=none;fillColor=none;fontSize=12;" parent="1" vertex="1"><mxGeometry x="1170" y="665" width="40" height="20" as="geometry"/></mxCell><mxCell id="270" value="Daftar Buku" style="text;html=1;align=left;verticalAlign=middle;resizable=0;points=[];autosize=1;strokeColor=none;fillColor=none;fontSize=12;" parent="1" vertex="1"><mxGeometry x="960" y="530" width="80" height="20" as="geometry"/></mxCell><mxCell id="273" value="Book Detail" style="strokeWidth=1;shadow=0;dashed=0;align=center;html=1;shape=mxgraph.mockup.containers.window;align=left;verticalAlign=top;spacingLeft=8;strokeColor2=#008cff;strokeColor3=#c4c4c4;fontColor=#666666;mainText=;fontSize=17;labelBackgroundColor=none;" parent="1" vertex="1"><mxGeometry x="920" y="920" width="550" height="380" as="geometry"/></mxCell><mxCell id="274" value="" style="verticalLabelPosition=bottom;shadow=0;dashed=0;align=center;html=1;verticalAlign=top;strokeWidth=1;shape=mxgraph.mockup.graphics.simpleIcon;strokeColor=#999999;fontSize=12;" parent="1" vertex="1"><mxGeometry x="1010" y="1010" width="120" height="150" as="geometry"/></mxCell><mxCell id="276" value="&amp;lt;name&amp;gt;" style="text;html=1;align=left;verticalAlign=middle;resizable=0;points=[];autosize=1;strokeColor=none;fillColor=none;fontSize=12;" parent="1" vertex="1"><mxGeometry x="1010" y="970" width="60" height="20" as="geometry"/></mxCell><mxCell id="284" value="&amp;lt;img?&amp;gt;" style="text;html=1;align=left;verticalAlign=middle;resizable=0;points=[];autosize=1;strokeColor=none;fillColor=none;fontSize=12;" parent="1" vertex="1"><mxGeometry x="1050" y="1020" width="60" height="20" as="geometry"/></mxCell><mxCell id="288" value="" style="group" parent="1" vertex="1" connectable="0"><mxGeometry x="1230" y="1010" width="130" height="100" as="geometry"/></mxCell><mxCell id="275" value="Pengarang: &amp;lt;author&amp;gt;" style="text;html=1;align=left;verticalAlign=middle;resizable=0;points=[];autosize=1;strokeColor=none;fillColor=none;fontSize=12;" parent="288" vertex="1"><mxGeometry width="130" height="20" as="geometry"/></mxCell><mxCell id="279" value="Penerbit: &amp;lt;publisher&amp;gt;" style="text;html=1;align=left;verticalAlign=middle;resizable=0;points=[];autosize=1;strokeColor=none;fillColor=none;fontSize=12;" parent="288" vertex="1"><mxGeometry y="20" width="130" height="20" as="geometry"/></mxCell><mxCell id="280" value="Kategori: &amp;lt;category&amp;gt;" style="text;html=1;align=left;verticalAlign=middle;resizable=0;points=[];autosize=1;strokeColor=none;fillColor=none;fontSize=12;" parent="288" vertex="1"><mxGeometry y="40" width="130" height="20" as="geometry"/></mxCell><mxCell id="281" value="Bahasa: &amp;lt;language&amp;gt;" style="text;html=1;align=left;verticalAlign=middle;resizable=0;points=[];autosize=1;strokeColor=none;fillColor=none;fontSize=12;" parent="288" vertex="1"><mxGeometry y="60" width="130" height="20" as="geometry"/></mxCell><mxCell id="282" value="Harga: &amp;lt;price&amp;gt;" style="text;html=1;align=left;verticalAlign=middle;resizable=0;points=[];autosize=1;strokeColor=none;fillColor=none;fontSize=12;" parent="288" vertex="1"><mxGeometry y="80" width="90" height="20" as="geometry"/></mxCell><mxCell id="289" value="&lt;span style=&quot;font-size: 11px&quot;&gt;1&lt;/span&gt;" style="strokeWidth=1;shadow=0;dashed=0;align=center;html=1;shape=mxgraph.mockup.forms.spinner;strokeColor=#999999;spinLayout=right;spinStyle=normal;adjStyle=triangle;fillColor=#aaddff;fontSize=17;fontColor=#666666;mainText=;html=1;overflow=fill;" parent="1" vertex="1"><mxGeometry x="1235" y="1140" width="60" height="20" as="geometry"/></mxCell><mxCell id="290" value="&lt;font style=&quot;font-size: 12px&quot;&gt;Beli&lt;/font&gt;" style="strokeWidth=1;shadow=0;dashed=0;align=center;html=1;shape=mxgraph.mockup.buttons.button;strokeColor=#666666;fontColor=#ffffff;mainText=;buttonStyle=round;fontSize=17;fontStyle=1;fillColor=#008cff;whiteSpace=wrap;" parent="1" vertex="1"><mxGeometry x="1310" y="1140" width="50" height="20" as="geometry"/></mxCell><mxCell id="291" value="&amp;lt;qty&amp;gt;" style="text;html=1;align=left;verticalAlign=middle;resizable=0;points=[];autosize=1;strokeColor=none;fillColor=none;fontSize=12;" parent="1" vertex="1"><mxGeometry x="1235" y="1120" width="50" height="20" as="geometry"/></mxCell><mxCell id="298" style="rounded=0;orthogonalLoop=1;jettySize=auto;html=1;" edge="1" parent="1" source="296" target="297"><mxGeometry relative="1" as="geometry"/></mxCell><mxCell id="296" value="Anonymous" style="rounded=1;whiteSpace=wrap;html=1;" vertex="1" parent="1"><mxGeometry x="462.5" y="680" width="85" height="30" as="geometry"/></mxCell><mxCell id="297" value="Register" style="rounded=1;whiteSpace=wrap;html=1;" vertex="1" parent="1"><mxGeometry x="430" y="740" width="85" height="30" as="geometry"/></mxCell></root></mxGraphModel></diagram></mxfile>